<svg xmlns="http://www.w3.org/2000/svg" viewBox="0 0 128 128">
	<g fill="#09f">
		<path d="M50.1,96.9L50,87.7c-7.3,7.1-12.9,11-21.4,11c-11.8,0-24.5-8.1-24.5-24.2V31.9h7.6v41.3
			c0,13,9.5,19.3,18.5,19.3c7.2,0,11.5-3.2,19.4-11.4V31.9H57v65L50.1,96.9z"/>
		<path d="M123.8,64.5c0,20.9-8.8,34.1-26.1,34.1c-6.5,0-11.7-1.7-21-10.5v39.7h-7.6V31.9H76l0.2,8.8
			c6-8.1,13.9-10.4,20.4-10.4C114,30.3,123.8,43.9,123.8,64.5z M94.9,36.4c-5.9,0-12.8,2.2-18.2,11.8l-0.1,32.5
			c9.4,10,13.5,11.8,19.6,11.8c14.1,0,20-10.7,20-28C116.2,47.9,109,36.4,94.9,36.4L94.9,36.4z"/>
	</g>
</svg>